<?xml version="1.0" encoding="UTF-8" standalone="no"?>
<svg
   width="66.366127"
   height="67.438454"
   id="svg5973"
   version="1.1">
  <g
     id="layer1"
     transform="translate(-116.35835,-983.33498)">
    <g
       id="g5400">
      <path
         style="color:#000000;font-style:normal;font-variant:normal;font-weight:normal;font-stretch:normal;font-size:medium;line-height:normal;font-family:Sans;-inkscape-font-specification:Sans;text-indent:0;text-align:start;text-decoration:none;text-decoration-line:none;letter-spacing:normal;word-spacing:normal;text-transform:none;writing-mode:lr-tb;direction:ltr;baseline-shift:baseline;text-anchor:start;display:inline;overflow:visible;visibility:visible;fill:#000000;fill-opacity:1;fill-rule:nonzero;stroke:none;stroke-width:0.1068349;marker:none;enable-background:accumulate"
         d="m 148.0625,983.34375 c -0.90343,0.0571 -2.18609,0.28045 -3.09375,0.875 -0.18555,0.12153 -0.28495,0.30523 -0.375,0.53125 -0.09,0.22602 -0.18099,0.49868 -0.3125,0.84375 -0.26302,0.69013 -0.72349,1.63678 -1.9375,2.9375 -0.10858,0.11633 -0.14937,0.30018 -0.15625,0.5 -0.007,0.19982 0.0221,0.41849 0.0625,0.625 0.0404,0.20651 0.0778,0.39721 0.125,0.53125 0.0236,0.067 0.0429,0.11974 0.0625,0.15625 0.01,0.0183 0.0149,0.0478 0.0312,0.0625 0.004,0.004 0.024,-0.004 0.0312,0 -6e-5,0.002 -1.1e-4,0.0284 0,0.0312 4e-5,8e-5 0.0312,0.0312 0.0312,0.0312 0,0 0.0219,0.01 0.0312,0 0,0 0.0312,0 0.0312,0 1.5e-4,-2.1e-4 0.0303,-0.0292 0.0312,-0.0312 0.005,-0.0104 -0.005,-0.0209 0,-0.0312 0.46633,-0.9474 0.92787,-1.52015 1.375,-1.875 0.452,-0.35872 0.89734,-0.49561 1.3125,-0.5625 0.41516,-0.0669 0.79196,-0.0441 1.15625,-0.125 0.36429,-0.0809 0.69615,-0.24681 0.96875,-0.65625 0.46646,-0.70059 0.3025,-1.27469 0.375,-1.8125 0.0362,-0.26891 0.15017,-0.54398 0.40625,-0.84375 0.25608,-0.29977 0.67737,-0.62128 1.375,-1 0.01,-0.005 0.0221,-0.021 0.0312,-0.0312 0.002,-0.004 -8.6e-4,-0.0264 0,-0.0312 -5e-5,-7.7e-4 0.001,-0.0267 0,-0.0312 -0.004,-0.007 0.005,-0.0268 0,-0.0312 -0.009,-0.009 -0.0222,0.004 -0.0312,0 -0.0363,-0.0174 -0.0926,-0.0226 -0.15625,-0.0312 -0.12738,-0.0174 -0.31624,-0.0312 -0.53125,-0.0312 -0.0432,-0.005 -0.0603,0.002 -0.0937,0 -0.1717,-0.0105 -0.41625,-0.0136 -0.6875,0 h -0.0625 z"
         id="path3865" />
      <path
         style="color:#000000;font-style:normal;font-variant:normal;font-weight:normal;font-stretch:normal;font-size:medium;line-height:normal;font-family:Sans;-inkscape-font-specification:Sans;text-indent:0;text-align:start;text-decoration:none;text-decoration-line:none;letter-spacing:normal;word-spacing:normal;text-transform:none;writing-mode:lr-tb;direction:ltr;baseline-shift:baseline;text-anchor:start;display:inline;overflow:visible;visibility:visible;fill:#000000;fill-opacity:1;fill-rule:nonzero;stroke:none;stroke-width:0.1068349;marker:none;enable-background:accumulate"
         d="m 157.84375,984.375 c -0.0479,-10e-4 -0.134,8.3e-4 -0.21875,0.0625 -0.16969,0.10441 -0.42183,0.3523 -0.625,0.6875 -0.20317,0.3352 -0.36088,0.76922 -0.3125,1.21875 0.0382,0.35443 0.1928,0.72647 0.34375,1 0.0755,0.13677 0.15026,0.23642 0.21875,0.3125 0.0342,0.038 0.0605,0.0745 0.0937,0.0937 0.0166,0.01 0.0422,-0.002 0.0625,0 0.0375,0.0342 0.0782,0.0621 0.125,0.0625 0.0234,1.9e-4 0.046,-0.0137 0.0625,-0.0312 0.0165,-0.0176 0.0267,-0.0408 0.0312,-0.0625 0.19887,-0.93981 0.0841,-2.21703 0.3125,-3.21875 0.006,-0.0279 -0.0164,-0.0664 -0.0312,-0.0937 -0.0148,-0.0274 -0.0359,-0.0303 -0.0625,-0.0312 z"
         id="path3873" />
      <path
         style="color:#000000;font-style:normal;font-variant:normal;font-weight:normal;font-stretch:normal;font-size:medium;line-height:normal;font-family:Sans;-inkscape-font-specification:Sans;text-indent:0;text-align:start;text-decoration:none;text-decoration-line:none;letter-spacing:normal;word-spacing:normal;text-transform:none;writing-mode:lr-tb;direction:ltr;baseline-shift:baseline;text-anchor:start;display:inline;overflow:visible;visibility:visible;fill:#000000;fill-opacity:1;fill-rule:nonzero;stroke:none;stroke-width:0.1068349;marker:none;enable-background:accumulate"
         d="m 152.46875,985.61199 c -0.0762,0.0149 -0.14573,0.0486 -0.21875,0.0625 0.009,-0.002 -0.002,-0.006 -0.0312,0 -0.48995,0.0376 -1.15174,0.20913 -1.75,0.5625 -0.59825,0.35337 -1.14796,0.88221 -1.34375,1.6875 -0.20517,0.84348 -0.0696,1.55266 0.0625,2.28125 0.13044,0.71939 0.25321,1.45982 0.125,2.4375 -0.5473,-0.14071 -1.09582,-0.27404 -1.65625,-0.375 0.0321,-0.5352 -0.0523,-0.90236 -0.1875,-1.15625 -0.14234,-0.26728 -0.35203,-0.43503 -0.53125,-0.59375 -0.17921,-0.15872 -0.32352,-0.3182 -0.40625,-0.59375 -0.0827,-0.27555 -0.0824,-0.67631 0.0625,-1.3125 0.006,-0.0265 -0.0183,-0.0684 -0.0312,-0.0937 -0.013,-0.0255 -0.0391,-0.0236 -0.0625,-0.0312 -0.0351,-0.0116 -0.054,-0.007 -0.0937,0 -0.005,-0.005 -0.0252,0.004 -0.0312,0 -0.006,-0.004 0.006,-0.0285 0,-0.0312 -0.0258,-0.0115 -0.0631,-0.0309 -0.0937,-0.0312 -0.0613,-6.9e-4 -0.1354,0.0329 -0.21875,0.0625 -0.16669,0.0593 -0.36129,0.16053 -0.5625,0.34375 -0.40241,0.36643 -0.80174,1.0191 -0.75,1.9375 0.0291,0.51578 0.36368,0.90042 0.71875,1.21875 -0.6622,-0.0566 -1.32269,-0.0937 -2,-0.0937 -0.64635,0 -1.27472,0.0417 -1.90625,0.0937 0.024,-0.0739 0.0576,-0.13261 0.0625,-0.21875 0.0474,-0.84224 -0.23935,-1.43674 -0.5625,-1.8125 -0.16157,-0.18788 -0.31028,-0.32537 -0.46875,-0.40625 -0.14689,-0.075 -0.27232,-0.11078 -0.375,-0.0937 -0.0109,-0.006 -0.0205,0.005 -0.0312,0 -0.091,-0.0424 -0.17668,-0.0704 -0.25,-0.0625 -0.082,0.009 -0.17327,0.0467 -0.1875,0.125 -0.0646,0.35514 -0.2223,0.5893 -0.4375,0.78125 -0.2152,0.19195 -0.46903,0.33419 -0.71875,0.5 -0.24972,0.16581 -0.50539,0.37698 -0.65625,0.65625 -0.14683,0.27181 -0.20309,0.63079 -0.125,1.125 -0.0619,0.0182 -0.12871,0.0134 -0.1875,0.0312 -0.007,-0.0234 -0.0358,-0.0467 -0.0625,-0.0625 -2.49003,-1.48114 -4.837,-0.96013 -6.6875,0.4375 -1.83914,1.38905 -3.19289,3.64462 -3.8125,5.65625 -0.004,0.0124 -0.0275,0.019 -0.0312,0.0312 -4.23483,4.22466 -6.875,10.07896 -6.875,16.53116 0,3.6245 0.83686,7.034 2.3125,10.0939 -0.76935,-0.179 -1.2825,-0.2213 -1.65625,-0.1564 -0.37375,0.065 -0.5958,0.2307 -0.78125,0.4375 -0.3709,0.4137 -0.58516,0.9798 -1.53125,1.3125 -0.0796,0.028 -0.11254,0.066 -0.125,0.125 -0.006,0.03 -0.0144,0.041 0,0.062 0.007,0.011 0.0221,0.023 0.0312,0.031 0.005,0.011 0.0246,0.022 0.0312,0.031 0.0342,0.05 0.10731,0.087 0.1875,0.125 0.0957,0.045 0.2238,0.1049 0.375,0.1563 0.3024,0.1028 0.67276,0.1988 1.09375,0.3437 0.84198,0.29 1.79784,0.7089 2.21875,1.25 0.0484,0.062 0.10335,0.079 0.1875,0.094 0.0841,0.015 0.17591,0.014 0.28125,0 0.21067,-0.028 0.48099,-0.1014 0.71875,-0.1875 0.4564,-0.1652 0.85492,-0.3493 0.90625,-0.375 0.92009,1.3131 1.96009,2.5297 3.125,3.625 -0.13358,0.199 -0.38213,0.5442 -0.59375,0.9375 -0.21985,0.4086 -0.40943,0.8536 -0.40625,1.1562 0.0102,0.9727 0.99359,2.0844 -0.1875,3.6875 -0.0922,0.125 -0.12308,0.2283 -0.0937,0.3438 0.0293,0.1155 0.0976,0.2366 0.21875,0.3125 0.24238,0.1517 0.63581,0.2075 1.09375,0.1875 0.66697,0.069 1.59173,-0.098 2.40625,-0.6563 0.79977,-0.548 1.47261,-1.478 1.65625,-2.9062 0.58153,0.3475 1.16358,0.7025 1.78125,1 -0.23102,0.095 -0.46309,0.2913 -0.65625,0.5625 -0.21286,0.2989 -0.38568,0.651 -0.5,0.8437 -0.18885,0.3186 -0.25364,0.6459 -0.25,1 0.004,0.3542 0.057,0.7256 0.0625,1.1563 0.0111,0.8614 -0.13885,1.9429 -1.21875,3.4062 -0.0242,0.033 -0.0651,0.056 -0.0625,0.094 0.003,0.038 0.0356,0.068 0.0625,0.094 0.0539,0.051 0.14342,0.1002 0.25,0.125 0.21316,0.05 0.51928,0.045 0.875,0.031 0.44516,0.025 1.02946,0.01 1.59375,-0.125 0.5391,-0.1243 1.03071,-0.3453 1.34375,-0.6563 0.0641,0.095 0.12581,0.1707 0.1875,0.25 0.0334,0.043 0.0566,0.1 0.0937,0.125 0.0148,0.01 0.0444,-0.01 0.0625,0 0.0111,0.032 0.0468,0.068 0.0625,0.094 0.01,0.016 0.008,0.02 0.0312,0.031 0.0231,0.011 0.0721,0.01 0.0937,0 0.24724,-0.119 0.56057,-0.3779 0.90625,-0.75 0.34569,-0.372 0.72529,-0.8563 1.0625,-1.375 0.66192,-1.018 1.19407,-2.2162 1.15625,-3.1875 0.38362,0.08 0.76887,0.159 1.15625,0.2188 -0.16014,0.1976 -0.30668,0.4047 -0.375,0.5937 -0.13412,0.3711 -0.17422,0.9274 -0.0937,1.5 0.0805,0.5727 0.29905,1.1667 0.75,1.5625 0.4827,0.4235 1.16825,0.6347 1.8125,1 0.64425,0.3652 1.23308,0.8695 1.59375,1.9063 0.3356,0.9648 -0.001,1.6232 -0.40625,2.1562 -0.20254,0.2666 -0.40985,0.4868 -0.5625,0.7188 -0.15265,0.232 -0.26221,0.4696 -0.1875,0.7187 0.13107,0.437 0.35045,0.6807 0.59375,0.8125 0.2433,0.1319 0.5238,0.1477 0.78125,0.1875 0.0711,0.019 0.14241,0.044 0.21875,0.062 0.0588,0.014 0.0828,0.017 0.125,0.031 0.0507,0.016 0.10481,0.039 0.15625,0.062 0.0643,0.032 0.1253,0.074 0.1875,0.125 0.0446,0.034 0.0942,0.062 0.125,0.094 0.1668,0.1779 0.27732,0.4535 0.375,0.9063 8e-5,3e-4 0.0291,0 0.0312,0 0.002,0 -1.5e-4,0.031 0,0.031 h 0.0312 c 0.007,0.018 -0.004,0.043 0,0.062 0.007,0.032 0.031,0.052 0.0625,0.062 0.0315,0.011 0.0629,0.01 0.0937,0 0.0617,-0.018 0.14263,-0.062 0.21875,-0.125 0.15224,-0.1255 0.32583,-0.3234 0.46875,-0.5937 0.28584,-0.5405 0.41091,-1.3179 -0.15625,-2.125 -0.0412,-0.059 -0.0502,-0.1368 -0.0312,-0.2188 0.019,-0.082 0.082,-0.1734 0.15625,-0.2812 0.1485,-0.2156 0.38442,-0.4691 0.65625,-0.75 0.54367,-0.5618 1.21759,-1.2338 1.4375,-1.9375 0.25093,-0.803 -0.10794,-1.4356 -0.53125,-2 -0.4233,-0.5644 -0.90893,-1.0835 -0.96875,-1.5625 -0.0613,-0.4909 0.17301,-1.0209 0.40625,-1.5313 0.23324,-0.5103 0.47361,-0.9918 0.3125,-1.4062 -0.002,-0.01 0.003,-0.022 0,-0.031 0.50489,-0.075 1.00477,-0.1725 1.5,-0.2812 h 0.0312 v 0.031 c 1.28455,1.255 2.53643,1.8486 3.65625,2.25 1.11983,0.4013 2.09983,0.6083 2.8125,1.125 0.0427,0.031 0.0862,0.062 0.125,0.094 0.21047,0.1694 0.40343,0.3494 0.5625,0.5937 v 0.031 c 0.0223,0.034 0.0442,0.033 0.0625,0.062 0.25088,0.4194 0.38302,1.0063 0.46875,1.75 0.007,0.057 0.0432,0.077 0.0625,0.094 0.007,0.01 0.0316,0.032 0.0312,0.031 0.004,0.02 -0.007,0.046 0,0.062 0.0116,0.027 0.033,0.05 0.0625,0.062 0.0295,0.013 0.0686,0.013 0.0937,0 0.0251,-0.013 0.0406,-0.04 0.0625,-0.062 0.0876,-0.094 0.19988,-0.275 0.3125,-0.5313 0.22524,-0.5124 0.48354,-1.3247 0.6875,-2.2187 0.20397,-0.894 0.34056,-1.8719 0.3125,-2.75 -0.0281,-0.8781 -0.23225,-1.6606 -0.71875,-2.125 -0.26125,-0.2494 -0.6988,-0.4948 -1.15625,-0.75 0.62338,0.1591 1.6574,0.3515 2.46875,0.094 0.31248,-0.099 1.81595,-0.5914 2.9375,-1.7187 0.35874,0.3783 0.67325,0.834 1,1.5 0.27435,0.5592 0.34756,0.9888 0.28125,1.3125 -0.0663,0.3237 -0.2688,0.5469 -0.5,0.7187 -0.2312,0.1717 -0.4909,0.2935 -0.71875,0.375 -0.11392,0.041 -0.23139,0.063 -0.3125,0.094 -0.0811,0.03 -0.11714,0.076 -0.15625,0.125 -0.0594,0.074 -0.1025,0.1177 -0.0937,0.1875 0.009,0.07 0.0589,0.1528 0.125,0.1875 0.13212,0.069 0.33664,0.061 0.59375,0.031 0.27989,0.048 0.70739,-0.01 1.1875,-0.1875 0.48011,-0.18 0.98755,-0.4658 1.375,-0.9062 0.38745,-0.4404 0.67437,-1.0498 0.65625,-1.7813 -0.0181,-0.7316 -0.33836,-1.5831 -1.0625,-2.625 -0.33442,-0.4813 -0.75016,-0.8093 -1.21875,-1.0312 0.18535,-0.8044 0.13219,-1.7804 -0.3125,-2.9063 0.15066,0.01 0.28618,0.023 0.46875,0.031 0.77155,0.035 1.20731,0.3268 1.5625,0.6875 0.3552,0.3607 0.62659,0.8082 1.0625,1.1875 0.3591,0.3124 0.71274,0.5624 1.03125,0.75 0.31852,0.1876 0.60872,0.301 0.78125,0.3437 0.056,0.037 0.11675,0.071 0.15625,0.094 0.0281,0.016 0.0427,0.022 0.0625,0.031 0.0124,0.01 0.0194,0.028 0.0312,0.031 0.005,6e-4 0.0301,2e-4 0.0312,0 4.3e-4,-2e-4 0.0309,3e-4 0.0312,0 3e-4,-3e-4 -1.7e-4,-0.031 0,-0.031 5e-5,-4e-4 9e-5,-0.031 0,-0.031 -0.002,-0.01 0.002,-0.027 0,-0.031 h -0.0312 c -0.0124,-0.014 -0.042,-0.043 -0.0625,-0.062 0.009,-0.01 -0.003,-0.019 0,-0.031 0.004,-0.018 0.0366,-0.017 0.0312,-0.031 -0.0178,-0.047 -0.0642,-0.1046 -0.125,-0.1562 -0.0735,-0.063 -0.14796,-0.1399 -0.21875,-0.25 h 0.0312 c -0.25689,-0.5517 -0.36856,-1.4532 -0.3125,-2.25 0.028,-0.3984 0.0808,-0.7683 0.1875,-1.0625 0.1004,-0.2768 0.24898,-0.4706 0.40625,-0.5625 0.23034,0.1523 0.47938,0.5698 0.71875,1.0312 0.24767,0.4773 0.50027,0.9984 0.71875,1.3125 0.32302,0.4648 0.80046,1.0083 1.28125,1.4688 0.48079,0.4605 0.95866,0.8176 1.3125,0.9062 0.0555,0.014 0.15236,0.03 0.28125,0.031 0.1289,0 0.26809,-0.014 0.4375,-0.031 0.30059,0 0.78723,-0.049 1.1875,-0.2812 0.40027,-0.2322 0.71829,-0.6619 0.65625,-1.375 -0.002,-0.028 -0.008,-0.042 -0.0312,-0.062 -0.0233,-0.022 -0.069,-0.038 -0.0937,-0.031 -0.0495,0.014 -0.0803,0.048 -0.125,0.094 -0.01,-8e-4 -0.0226,0 -0.0312,0 -0.0259,0 -0.0369,0.018 -0.0625,0.031 -0.0512,0.027 -0.1171,0.047 -0.1875,0.094 -0.13433,0.089 -0.30841,0.2171 -0.5,0.2812 -0.007,-8e-4 -0.0237,0 -0.0312,0 -0.14318,-0.02 -0.29362,-0.095 -0.46875,-0.25 -0.0506,-0.045 -0.0699,-0.1192 -0.0937,-0.25 -0.0238,-0.1307 -0.0528,-0.2997 -0.0625,-0.5 -0.0194,-0.4005 -0.0407,-0.9437 -0.15625,-1.5312 -0.23116,-1.1749 -0.85609,-2.6035 -2.71875,-3.875 -0.46484,-0.3175 -1.01818,-0.3623 -1.59375,-0.3438 -0.9976,-0.072 -2.09443,0.2747 -3,0.3438 h -0.0625 c 0.60659,-1.3298 1.0564,-2.7377 1.40625,-4.1875 0.11864,0.032 0.21716,0.072 0.34375,0.125 0.006,0.01 0.009,0.023 0.0312,0.031 0.32175,0.1382 0.6904,0.281 0.96875,0.4063 0.17395,0.079 0.33501,0.1412 0.46875,0.1875 0.13374,0.046 0.25646,0.087 0.34375,0.062 0.0437,-0.012 0.0804,-0.048 0.0937,-0.094 0.0134,-0.046 -0.0129,-0.097 -0.0312,-0.1562 -0.0366,-0.1193 -0.12604,-0.2696 -0.28125,-0.5 -0.21548,-0.3199 -0.30791,-0.5899 -0.34375,-0.7813 -0.0358,-0.1915 0.008,-0.3057 0.0937,-0.4062 0.17089,-0.2009 0.55221,-0.2984 1,-0.3438 0.0861,0 0.15502,-0.026 0.21875,-0.031 0.22954,-0.02 0.4704,-0.029 0.6875,-0.062 0.71474,-0.1129 0.96515,-0.3851 1.25,-0.625 0.28486,-0.2399 0.6173,-0.4606 1.625,-0.5313 0.1752,-0.012 0.37301,-0.1134 0.5625,-0.3125 0.1895,-0.199 0.36304,-0.4805 0.5625,-0.8125 0.39892,-0.6642 0.8029,-1.5574 1.125,-2.4687 0.32211,-0.9113 0.57883,-1.8512 0.65625,-2.625 0.0387,-0.3869 0.0247,-0.717 -0.0312,-1 -0.056,-0.283 -0.1598,-0.5274 -0.34375,-0.6563 -0.0145,-0.01 -0.0392,0 -0.0625,0 -0.014,0 -0.0219,0.024 -0.0312,0.031 -0.005,-0.01 -0.0257,0.01 -0.0312,0 -0.0167,-0.018 -0.01,-0.048 -0.0312,-0.062 -0.028,-0.02 -0.0647,-0.019 -0.0937,0 -0.0291,0.019 -0.0471,0.033 -0.0625,0.062 -0.0308,0.062 -0.0632,0.1693 -0.0937,0.2812 -0.061,0.224 -0.12516,0.5376 -0.25,0.875 -0.24969,0.675 -0.68967,1.4268 -1.59375,1.6875 -0.13604,0.039 -0.26094,0.071 -0.40625,0.094 -1.76945,0.098 -4.14596,-0.6223 -5.875,-0.7188 -0.10433,-0.8584 -0.24195,-1.7024 -0.4375,-2.5312 0.42561,-0.175 0.81503,-0.3332 1.125,-0.5625 0.40583,-0.2999 1.11109,-1.1231 1.75,-2.1563 0.63891,-1.0333 1.21627,-2.2672 1.34375,-3.3437 0.2412,-2.0368 0.0349,-3.75591 -0.0312,-5.34371 -0.0661,-1.58788 0.012,-3.05995 0.78125,-4.625 0.30502,-0.62048 0.97292,-1.03211 1.71875,-1.375 0.74583,-0.34289 1.55676,-0.6086 2.125,-0.90625 0.0369,-0.0193 0.0503,-0.0548 0.0625,-0.0937 0.0122,-0.039 0.0187,-0.086 0,-0.125 -0.0374,-0.0781 -0.11618,-0.14917 -0.25,-0.21875 -0.26764,-0.13915 -0.75106,-0.24502 -1.5,-0.25 -0.69773,-0.0518 -1.68682,0.0283 -3.09375,0.34375 -1.55937,0.34951 -2.56325,1.04013 -3.1875,1.90625 -0.62425,0.86612 -0.89064,1.89105 -1.03125,2.875 -0.004,0.0292 -0.0205,0.0562 -0.0625,0.0937 -0.042,0.0376 -0.11261,0.1037 -0.1875,0.15625 -0.14978,0.10511 -0.33472,0.25111 -0.53125,0.5 -0.39307,0.49778 -0.78125,1.40589 -0.78125,3.21875 0,0.11221 -0.004,0.19311 -0.0312,0.24991 -0.0274,0.057 -0.0722,0.065 -0.125,0.094 -0.10567,0.057 -0.28381,0.092 -0.5,0.125 -0.42417,0.064 -1.00128,0.1921 -1.625,0.9062 -0.14281,-0.192 -0.28812,-0.4055 -0.4375,-0.5937 0.20664,-0.3464 0.32962,-0.67731 0.375,-0.93746 0.0236,-0.13539 0.0463,-0.25728 0.0312,-0.34375 -0.008,-0.0432 -0.0403,-0.0634 -0.0625,-0.0937 -0.0222,-0.0305 -0.054,-0.0625 -0.0937,-0.0625 -0.21461,-1.3e-4 -0.4065,0.0688 -0.59375,0.15625 -0.009,0.004 -0.022,-0.004 -0.0312,0 -0.16492,0.0369 -0.35213,0.11154 -0.53125,0.1875 -0.58451,-0.64804 -1.22104,-1.26442 -1.875,-1.84375 0.65664,-0.42879 1.35499,-0.88502 2.375,-1.125 0.92887,-0.21856 1.76206,-0.99011 2.09375,-2.3125 0.33169,-1.32239 0.19132,-3.18318 -0.875,-5.5625 -0.22086,-0.49281 -0.13465,-1.28531 -0.0625,-1.875 0.0361,-0.29484 0.0557,-0.52912 0.0312,-0.6875 -0.006,-0.0396 -0.0135,-0.0634 -0.0312,-0.0937 -0.0177,-0.0303 -0.0581,-0.0528 -0.0937,-0.0625 -0.0713,-0.0194 -0.12916,-0.004 -0.21875,0.0625 -0.0703,0.0519 -0.10978,0.117 -0.15625,0.15625 -0.003,0.002 -0.0123,-0.003 -0.0312,0 -0.0189,0.003 -0.0356,0.0113 -0.0625,0.0312 -0.91817,0.67651 -1.38043,1.67554 -1.875,2.78125 -0.49457,1.10571 -1.01411,2.31411 -2.09375,3.5 -0.0786,0.0864 -0.27346,0.24763 -0.53125,0.40625 -0.25779,0.15862 -0.59839,0.33323 -0.9375,0.53125 -0.66518,0.38843 -1.37938,0.80941 -1.84375,1.21875 -0.14157,-0.0813 -0.28402,-0.17088 -0.4375,-0.25 0.42763,-0.73375 0.58629,-1.95517 0.53125,-2.46875 -0.108,-1.00796 -0.49687,-1.47837 -0.90625,-1.84375 -0.40938,-0.36538 -0.82319,-0.60945 -1.09375,-1.125 -0.26165,-0.49839 -0.4387,-1.11253 -0.40625,-1.65625 0.0325,-0.54372 0.25761,-1.02282 0.78125,-1.34375 0.0946,-0.058 0.13614,-0.11999 0.15625,-0.1875 0.0101,-0.0338 0.0165,-0.0636 0,-0.0937 -0.0165,-0.0302 -0.0316,-0.0447 -0.0625,-0.0625 -0.12361,-0.0711 -0.34263,-0.0915 -0.625,-0.0625 z m -9.6875,7.78125 c 4.09704,0 7.92254,1.14521 11.1875,3.125 -0.024,0.98962 0.33671,1.72584 0.90625,1.96875 0.54276,0.23148 0.98978,0.26284 1.40625,0.21875 0.23454,0.0177 0.44621,0.0132 0.65625,-0.0312 0.64219,0.55774 1.24033,1.1835 1.8125,1.81246 -0.73051,0.2415 -1.41667,0.4738 -1.53125,0.5312 -0.58385,0.292 1.07449,1.2462 1.8125,1.125 h 0.0625 c 0.13578,0.023 0.26828,0.018 0.375,0 0.20029,-0.033 0.35764,-0.097 0.53125,-0.1562 0.32772,0.4332 0.67389,0.8547 0.96875,1.3125 -0.71557,1.049 -2.19949,0.8955 -2,1.625 0.29711,1.0861 1.32851,0.035 0.6875,2.8125 -0.15064,0.6525 0.7634,2.3136 2.3125,2.6875 0.1988,0.048 0.46343,0.039 0.75,0.031 0.32439,0.028 0.72007,0.031 1.15625,-0.031 0.15245,0.7111 0.26339,1.421 0.34375,2.1562 -0.0792,0.01 -0.1752,0.026 -0.25,0.031 -0.12751,0.01 -0.25704,0.022 -0.375,0.031 -0.71867,0.034 -1.29195,0.068 -1.9375,0.625 -0.19561,0.1692 -0.37891,0.2391 -0.5625,0.2813 -0.0419,10e-5 -0.0843,-2e-4 -0.125,0 -0.49792,0.068 -0.92526,-0.094 -1.25,0.375 -0.64101,0.9258 -0.43965,2.3822 -1.1875,3.3437 -0.41105,0.5285 0.49462,1.8869 0.875,2.4375 0.22767,0.3295 1.09014,0.8174 1.78125,0.9688 0.51841,0.1138 1.19679,0.2567 2.03125,0.2812 0.0876,0.01 0.18731,0.028 0.28125,0.031 -0.262,0.8999 -0.56559,1.7777 -0.9375,2.625 -0.0493,-0.024 -0.10289,-0.044 -0.15625,-0.062 -0.35643,-0.1213 -1.07464,-0.2072 -1.75,-0.1875 -0.63886,-0.02 -1.29595,0.038 -1.625,0.2187 -0.58674,0.3221 -1.51015,0.4795 -1.6875,1.1251 -0.10619,0.3861 -0.70325,1.5297 -0.375,2.1563 0.16574,0.3166 0.4317,0.2991 0.71875,0.25 0.16618,0.045 0.35517,-3e-4 0.5625,-0.031 0.33007,0.056 0.63302,0.2907 0.875,1.1875 0.0498,0.1847 0.1513,0.3311 0.3125,0.4375 -0.3891,0.4704 -0.79182,0.9394 -1.21875,1.375 -0.32225,-0.4515 -0.66954,-0.8909 -1,-1.1562 -0.41924,-0.3362 -1.21977,-0.4376 -1.875,-0.4063 -0.28312,-0.013 -0.58334,3e-4 -0.8125,0.031 -0.66163,0.1018 -0.36251,-0.1083 -0.75,0.4375 -0.55047,0.7756 0.0102,1.5726 0.4375,2 0.0166,0.017 0.0435,0.045 0.0625,0.062 -1.28096,-0.3983 -2.74462,-0.9874 -4.5,-1.8439 -5.84024,-2.8489 -9.51416,-7.0697 -9.78125,-8.0312 -0.17152,-0.6177 4.16128,-4.1675 2.40625,-4.4375 -6.94427,-1.0683 -10.25888,-6.6242 -10.84375,-5.7813 -1.81619,2.6175 -1.23152,13.8409 0.53125,14.375 1.30328,0.3948 2.87208,-1.5444 3.40625,-1.4375 0.90722,0.1812 4.92713,7.5905 13.28125,9.8439 -0.0792,0 -0.17589,-0.01 -0.25,0 -0.43711,0.033 -1.13318,0.4266 -1.21875,1.2811 -0.0287,0.2863 0.0622,0.6311 0.1875,1 -0.52451,0.1172 -1.05565,0.2344 -1.59375,0.3125 -0.15198,-0.181 -0.30855,-0.3127 -0.46875,-0.375 -0.19362,-0.075 -0.47135,-0.088 -0.78125,-0.062 -0.72202,-0.051 -1.86315,0.2339 -2.375,0.4688 -0.0777,0.036 -0.19176,0.1093 -0.28125,0.1562 -11.5599,-0.4075 -20.78125,-9.9024 -20.78125,-21.5626 0,-5.5473 2.09601,-10.5874 5.53125,-14.4062 -0.0149,0.3105 -0.0109,0.6107 0.0312,0.875 0.0589,0.3692 -2.5,2.5728 -2.5,3.6875 0,0 6.36294,5.4334 6.875,4.2812 0.42734,-0.9615 -1.07466,-5.7787 4,-12.56241 0.55399,-0.74053 -3.5625,0.90625 -3.5625,0.90625 l 0.0625,-1.0625 c 0,0 0.041,-0.17696 0.0625,-0.25 3.23132,-1.93086 7.02051,-3.03125 11.0625,-3.03125 z"
         id="path3072" />
      <path
         style="color:#000000;font-style:normal;font-variant:normal;font-weight:normal;font-stretch:normal;font-size:medium;line-height:normal;font-family:Sans;-inkscape-font-specification:Sans;text-indent:0;text-align:start;text-decoration:none;text-decoration-line:none;letter-spacing:normal;word-spacing:normal;text-transform:none;writing-mode:lr-tb;direction:ltr;baseline-shift:baseline;text-anchor:start;display:inline;overflow:visible;visibility:visible;fill:#000000;fill-opacity:1;fill-rule:nonzero;stroke:none;stroke-width:0.1068349;marker:none;enable-background:accumulate"
         d="m 134.65625,988.5625 c -0.015,0.002 -0.0147,0.0236 -0.0312,0.0312 -0.011,0.005 -0.0212,-0.009 -0.0312,0 -0.085,-7.6e-4 -0.15625,0.005 -0.21875,0.0312 -0.0356,0.0151 -0.0729,0.0292 -0.0937,0.0625 -0.0208,0.0333 -0.0407,0.0835 -0.0312,0.125 0.23135,1.01468 0.29417,1.32896 0.6875,2.0625 0.01,0.0182 0.0398,0.0521 0.0625,0.0625 0.0227,0.0104 0.0443,0.007 0.0625,0 0.014,-0.005 0.0198,-0.0236 0.0312,-0.0312 0.003,0.006 0.0269,-0.005 0.0312,0 0.0131,0.0162 0.012,0.0559 0.0312,0.0625 0.0257,0.009 0.0687,0.006 0.0937,0 0.0501,-0.0112 0.10208,-0.0205 0.15625,-0.0625 0.10834,-0.0839 0.23294,-0.23088 0.34375,-0.40625 0.22162,-0.35074 0.39903,-0.85969 0.25,-1.34375 -0.0742,-0.2408 -0.3142,-0.40251 -0.5625,-0.5 -0.2483,-0.0975 -0.50863,-0.12779 -0.6875,-0.0937 -0.023,0.004 -0.0687,-0.004 -0.0937,0 z"
         id="path3921" />
      <path
         style="fill:#000000;fill-opacity:1;stroke:#000000;stroke-width:0.1068349"
         d="m 134.9375,993.26824 c 0.16256,-0.002 0.32306,10e-4 0.5,0.0312 0.0405,0.007 0.13218,-5.3e-4 0.1875,0 -1.04234,0.37387 -2.06392,0.83095 -3.03125,1.34375 0.51923,-0.72474 1.2851,-1.36354 2.34375,-1.375 z"
         id="path3056" />
      <path
         style="color:#000000;font-style:normal;font-variant:normal;font-weight:normal;font-stretch:normal;font-size:medium;line-height:normal;font-family:Sans;-inkscape-font-specification:Sans;text-indent:0;text-align:start;text-decoration:none;text-decoration-line:none;letter-spacing:normal;word-spacing:normal;text-transform:none;writing-mode:lr-tb;direction:ltr;baseline-shift:baseline;text-anchor:start;display:inline;overflow:visible;visibility:visible;fill:#000000;fill-opacity:1;fill-rule:nonzero;stroke:none;stroke-width:0.1068349;marker:none;enable-background:accumulate"
         d="m 175.75,997.15625 c -1.17544,0.0414 -2.31028,0.86516 -2.84375,1.375 -0.48254,0.46122 -0.71952,0.96886 -0.8125,1.49995 -0.093,0.5312 -0.054,1.1075 -0.0312,1.6563 0.0454,1.0975 0.0615,2.159 -1.03125,3.0937 -0.0186,0.016 -0.0217,0.04 -0.0312,0.063 -0.01,0.022 -0.0126,0.04 0,0.062 0.0251,0.045 0.0481,0.053 0.0937,0.063 0.0836,0.017 0.20766,0.016 0.34375,0 h 0.0312 c 0.0371,0.018 0.0699,0.03 0.125,0.031 0.0682,0 0.1519,0.014 0.25,0 0.1962,-0.027 0.45287,-0.096 0.71875,-0.1875 0.53176,-0.1839 1.11589,-0.49 1.46875,-0.9687 0.38704,-0.5253 0.52226,-1.3729 0.65625,-2.2188 0.13399,-0.8459 0.2646,-1.6891 0.6875,-2.28125 0.31708,-0.44391 1.03164,-0.68788 1.65625,-0.8125 0.31231,-0.0623 0.6083,-0.0893 0.8125,-0.125 0.1021,-0.0178 0.19287,-0.0418 0.25,-0.0625 0.0286,-0.0104 0.0416,-0.009 0.0625,-0.0312 0.0104,-0.0113 0.0299,-0.0426 0.0312,-0.0625 10e-4,-0.0199 -0.022,-0.0183 -0.0312,-0.0312 -0.59876,-0.83825 -1.32649,-1.08498 -2.0625,-1.03125 -0.0916,-0.0103 -0.18212,-0.0277 -0.28125,-0.0312 -0.0218,-7.8e-4 -0.0403,-7.9e-4 -0.0625,0 z"
         id="path3081" />
      <path
         style="color:#000000;font-style:normal;font-variant:normal;font-weight:normal;font-stretch:normal;font-size:medium;line-height:normal;font-family:Sans;-inkscape-font-specification:Sans;text-indent:0;text-align:start;text-decoration:none;text-decoration-line:none;letter-spacing:normal;word-spacing:normal;text-transform:none;writing-mode:lr-tb;direction:ltr;baseline-shift:baseline;text-anchor:start;display:inline;overflow:visible;visibility:visible;fill:#000000;fill-opacity:1;fill-rule:nonzero;stroke:none;stroke-width:0.1068349;marker:none;enable-background:accumulate"
         d="m 181.28125,998.8125 c -0.71771,-0.0125 -1.78613,0.20107 -3.125,1.0937 -0.54129,0.361 -0.96365,0.8173 -1.21875,1.25 -0.2551,0.4328 -0.36391,0.8375 -0.25,1.0938 0.0503,0.1132 0.1657,0.184 0.3125,0.2188 0.1468,0.035 0.33361,0.036 0.53125,0 0.30692,0.053 0.75355,-0.045 1.21875,-0.3126 0.46521,-0.2672 0.92362,-0.7115 1.3125,-1.375 0.22163,-0.378 0.54468,-0.6352 0.96875,-0.875 0.42407,-0.23968 0.97517,-0.45161 1.65625,-0.7187 0.0143,-0.006 0.0212,-0.013 0.0312,-0.0312 0.01,-0.0182 0.005,-0.0467 0,-0.0625 -0.009,-0.0315 -0.0388,-0.0432 -0.0625,-0.0625 -0.0474,-0.0386 -0.11368,-0.0882 -0.21875,-0.125 -0.21013,-0.0736 -0.53165,-0.11675 -0.96875,-0.0937 -0.0689,-0.005 -0.12066,9.5e-4 -0.1875,0 z"
         id="path3857" />
      <path
         style="color:#000000;font-style:normal;font-variant:normal;font-weight:normal;font-stretch:normal;font-size:medium;line-height:normal;font-family:Sans;-inkscape-font-specification:Sans;text-indent:0;text-align:start;text-decoration:none;text-decoration-line:none;letter-spacing:normal;word-spacing:normal;text-transform:none;writing-mode:lr-tb;direction:ltr;baseline-shift:baseline;text-anchor:start;display:inline;overflow:visible;visibility:visible;fill:#000000;fill-opacity:1;fill-rule:nonzero;stroke:none;stroke-width:0.1068349;marker:none;enable-background:accumulate"
         d="m 172.46875,1021.5 c -0.032,0 -0.031,0.057 -0.0625,0.062 -0.36961,0.066 -0.74858,0.1918 -0.875,0.5 -0.13744,0.3349 0.0266,0.8786 0.34375,1.4063 0.31717,0.5276 0.79836,1.0305 1.40625,1.2812 0.46174,0.1905 0.89749,0.2506 1.28125,0.2188 0.9532,0.064 1.64979,-0.4955 2.0625,-1.0626 0.20636,-0.2835 0.33781,-0.5634 0.40625,-0.7812 0.0342,-0.1089 0.0645,-0.2099 0.0625,-0.2812 -0.001,-0.036 -0.0135,-0.065 -0.0312,-0.094 -0.0177,-0.029 -0.0585,-0.034 -0.0937,-0.031 -0.89296,0.068 -1.35121,-0.1459 -1.75,-0.4063 -0.39879,-0.2604 -0.75702,-0.5772 -1.40625,-0.75 -0.25935,-0.069 -0.53978,-0.053 -0.8125,-0.031 -0.0111,0 -0.0117,0.01 -0.0312,0 -0.0196,-0.01 -0.0602,-0.03 -0.0937,-0.031 -0.11476,-0.01 -0.22555,-0.01 -0.34375,0 z"
         id="path3881" />
      <path
         style="fill:#000000;fill-opacity:1;stroke:#000000;stroke-width:0.1068349"
         d="m 161.84375,1029.4245 c -0.17987,0.5253 -0.5842,1.3287 -1.625,1.8437 0.56954,-0.5896 1.12001,-1.1968 1.625,-1.8437 z"
         id="path3046" />
      <path
         style="color:#000000;font-style:normal;font-variant:normal;font-weight:normal;font-stretch:normal;font-size:medium;line-height:normal;font-family:Sans;-inkscape-font-specification:Sans;text-indent:0;text-align:start;text-decoration:none;text-decoration-line:none;letter-spacing:normal;word-spacing:normal;text-transform:none;writing-mode:lr-tb;direction:ltr;baseline-shift:baseline;text-anchor:start;display:inline;overflow:visible;visibility:visible;fill:#000000;fill-opacity:1;fill-rule:nonzero;stroke:none;stroke-width:0.1068349;marker:none;enable-background:accumulate"
         d="m 124.65625,1030.9062 c -0.0902,0 -0.15359,0.028 -0.21875,0.094 -0.0652,0.066 -0.14229,0.1538 -0.1875,0.25 -0.0904,0.1924 -0.14556,0.4113 -0.15625,0.5625 -0.0121,0.1711 0.0438,0.4672 0.0937,0.7187 0.0499,0.2516 0.0937,0.4688 0.0937,0.4688 l 0.0312,0.125 0.0312,-0.062 0.0937,-0.062 c 0,0 0.0298,-0.03 0.0312,-0.031 0,0 1.3e-4,-0.017 0,-0.031 0.0613,-0.039 0.61147,-0.3485 0.71875,-0.9687 0.0685,-0.3958 -0.13716,-0.7278 -0.28125,-0.9063 v -0.031 c -0.005,-0.012 -0.0118,-0.044 -0.0312,-0.062 -0.0227,-0.022 -0.0417,-0.046 -0.0625,-0.063 -0.0104,-0.01 -0.0121,0 -0.0312,0 -0.0192,0 -0.0467,-0.013 -0.0625,0 h -0.0625 z"
         id="path3913" />
      <path
         style="color:#000000;font-style:normal;font-variant:normal;font-weight:normal;font-stretch:normal;font-size:medium;line-height:normal;font-family:Sans;-inkscape-font-specification:Sans;text-indent:0;text-align:start;text-decoration:none;text-decoration-line:none;letter-spacing:normal;word-spacing:normal;text-transform:none;writing-mode:lr-tb;direction:ltr;baseline-shift:baseline;text-anchor:start;display:inline;overflow:visible;visibility:visible;fill:#000000;fill-opacity:1;fill-rule:nonzero;stroke:none;stroke-width:0.1068349;marker:none;enable-background:accumulate"
         d="m 121.40625,1031.1562 c -0.4443,-0.01 -0.95083,0.1356 -1.53125,0.5 -0.92837,0.583 -1.24326,1.3175 -1.59375,2.0626 -0.35049,0.745 -0.73703,1.5039 -1.8125,2.1562 -0.0508,0.031 -0.0748,0.081 -0.0937,0.125 -0.0189,0.044 -0.0254,0.086 0,0.125 0.0509,0.078 0.16558,0.1414 0.3125,0.1875 0.29385,0.092 0.76084,0.1224 1.34375,0.094 1.10987,0.022 2.79391,-0.2582 4.28125,-1.25 1.08913,-0.7261 1.54204,-2.1093 1.0625,-3.0312 -0.29625,-0.5696 -0.94432,-1.0573 -1.84375,-0.9375 -0.009,0 -0.0109,-0.024 -0.0312,-0.031 -0.007,0 -0.0229,0 -0.0312,0 h -0.0625 z"
         id="path3905" />
      <path
         style="fill:#000000;fill-opacity:1;stroke:#000000;stroke-width:0.1068349"
         d="m 134.5625,1036.7057 c 0.40775,0.169 0.83094,0.3228 1.25,0.4688 -0.24527,0.2313 -0.47662,0.4639 -0.6875,0.5625 -0.22863,-0.157 -0.36166,-0.6437 -0.5625,-1.0313 z"
         id="path3040" />
      <path
         style="color:#000000;font-style:normal;font-variant:normal;font-weight:normal;font-stretch:normal;font-size:medium;line-height:normal;font-family:Sans;-inkscape-font-specification:Sans;text-indent:0;text-align:start;text-decoration:none;text-decoration-line:none;letter-spacing:normal;word-spacing:normal;text-transform:none;writing-mode:lr-tb;direction:ltr;baseline-shift:baseline;text-anchor:start;display:inline;overflow:visible;visibility:visible;fill:#000000;fill-opacity:1;fill-rule:nonzero;stroke:none;stroke-width:0.1068349;marker:none;enable-background:accumulate"
         d="m 123.4375,1037.6562 -0.0937,0.031 c -0.0204,0.01 -0.0157,0.046 -0.0312,0.062 -0.0406,0.043 -0.0782,0.085 -0.0937,0.1562 -0.0214,0.099 -0.0322,0.2199 0,0.3438 0.0644,0.2477 0.28441,0.4991 0.6875,0.5938 0.0177,10e-4 0.0522,0 0.0625,0 0.0612,0.028 0.16086,0.072 0.25,0.094 0.3786,0.089 0.73927,0 1,-0.125 0.13037,-0.065 0.22803,-0.1359 0.28125,-0.2187 0.0266,-0.042 0.07,-0.078 0.0625,-0.125 -0.007,-0.047 -0.0485,-0.097 -0.0937,-0.125 -0.28928,-0.1782 -0.62901,-0.2472 -0.96875,-0.3126 -0.33973,-0.065 -0.68034,-0.127 -0.96875,-0.3124 -0.002,0 -0.0197,-0.021 -0.0312,-0.031 -0.0103,-0.01 -0.0207,0 -0.0312,0 -0.0106,0 -0.0208,7e-4 -0.0312,0 v -0.031 z"
         id="path3901" />
      <path
         style="color:#000000;font-style:normal;font-variant:normal;font-weight:normal;font-stretch:normal;font-size:medium;line-height:normal;font-family:Sans;-inkscape-font-specification:Sans;text-indent:0;text-align:start;text-decoration:none;text-decoration-line:none;letter-spacing:normal;word-spacing:normal;text-transform:none;writing-mode:lr-tb;direction:ltr;baseline-shift:baseline;text-anchor:start;display:inline;overflow:visible;visibility:visible;fill:#000000;fill-opacity:1;fill-rule:nonzero;stroke:none;stroke-width:0.1068349;marker:none;enable-background:accumulate"
         d="m 134.53125,1044.0625 c -0.56451,0.044 -1.04363,0.2128 -1.34375,0.375 -0.15006,0.081 -0.2498,0.1526 -0.3125,0.2187 -0.0314,0.033 -0.0581,0.051 -0.0625,0.094 -0.002,0.022 0.0129,0.077 0.0312,0.094 0.0184,0.017 0.0426,0 0.0625,0 0.88626,0.087 1.30779,0.5097 1.6875,0.9687 0.37971,0.459 0.69782,0.9647 1.3125,1.25 0.27028,0.1256 0.59103,0.1269 0.875,0.094 0.54735,0.086 1.10682,-0.076 1.375,-0.5 0.18097,-0.2861 0.24989,-0.6313 0.125,-0.9687 -0.12489,-0.3374 -0.42084,-0.6834 -0.96875,-1.0313 -0.73151,-0.4643 -1.44398,-0.5952 -2.0625,-0.5937 -0.23308,-0.028 -0.44812,-0.015 -0.65625,0 -0.0198,0 -0.0431,0 -0.0625,0 z"
         id="path3897" />
    </g>
  </g>
</svg>
